<?xml version="1.0" standalone="no"?><!DOCTYPE svg PUBLIC "-//W3C//DTD SVG 1.1//EN" "http://www.w3.org/Graphics/SVG/1.1/DTD/svg11.dtd"><svg height="1024" node-id="1" sillyvg="true" template-height="1024" template-width="1024" version="1.1" viewBox="0 0 1024 1024" width="1024" xmlns="http://www.w3.org/2000/svg" xmlns:xlink="http://www.w3.org/1999/xlink"><defs node-id="30"></defs><path d="M 916.00 368.85 C 868.14 401.12 812.49 420.05 765.74 453.44 C 719.00 487.94 682.27 545.82 700.07 601.44 C 711.20 639.29 744.60 664.89 761.29 700.50 C 782.44 747.25 770.20 806.24 734.58 844.09 C 698.96 880.82 643.31 896.40 593.22 887.49 C 542.02 878.59 497.50 846.31 467.45 805.13 C 447.45 777.30 434.06 745.02 414.02 717.20 C 395.10 689.37 367.27 663.77 332.77 658.20 C 267.10 649.29 210.34 719.41 143.55 714.96 C 101.26 711.62 65.64 674.89 56.74 633.71 C 47.84 592.53 62.30 548.01 90.13 515.71 C 117.96 483.41 156.91 462.28 198.13 451.15 C 226.00 443.42 254.89 439.00 282.71 429.00 C 310.53 419.00 336.14 402.29 350.61 376.69 C 384.00 312.13 325.01 230.88 350.61 164.10 C 365.08 125.10 408.49 100.65 449.67 101.77 C 490.85 102.89 530.92 125.14 556.52 157.42 C 572.10 176.34 592.14 254.25 611.06 260.93 C 633.32 267.61 705.67 195.26 725.70 181.93 C 771.34 153.00 823.65 130.73 877.08 134.07 C 930.50 138.53 983.93 175.26 993.95 227.57 C 1005.08 282.00 963.90 336.57 916.00 368.85 Z" fill="#e8f0fd" fill-rule="nonzero" node-id="33" stroke="none" target-height="795.75" target-width="957.24" target-x="47.84" target-y="100.65"></path><path d="M 407.37 855.25 C 407.61 851.67 410.47 848.81 414.05 848.57 L 424.05 848.57 L 424.05 838.57 C 424.05 834.88 427.04 831.89 430.73 831.89 C 434.42 831.89 437.41 834.88 437.41 838.57 L 437.41 848.57 L 447.41 848.57 C 449.86 848.48 452.16 849.73 453.41 851.83 C 454.66 853.93 454.66 856.56 453.41 858.66 C 452.16 860.76 449.86 862.01 447.41 861.92 L 437.41 861.92 L 437.41 871.92 C 437.41 875.61 434.42 878.60 430.73 878.60 C 427.04 878.60 424.05 875.61 424.05 871.92 L 424.05 861.92 L 414.05 861.92 C 412.26 862.00 410.51 861.32 409.25 860.05 C 407.98 858.78 407.30 857.04 407.37 855.25 Z" fill="#e8f0fd" fill-rule="nonzero" node-id="35" stroke="none" target-height="46.710022" target-width="47.365692" target-x="407.29556" target-y="831.88995"></path><path d="M 53.43 190.76 C 53.67 187.18 56.52 184.33 60.10 184.08 L 70.10 184.08 L 70.10 174.08 C 70.34 170.50 73.20 167.65 76.78 167.41 C 80.36 167.65 83.22 170.50 83.46 174.08 L 83.46 184.08 L 93.46 184.08 C 97.15 184.08 100.14 187.07 100.14 190.76 C 100.14 194.45 97.15 197.44 93.46 197.44 L 83.46 197.44 L 83.46 207.44 C 83.22 211.02 80.36 213.88 76.78 214.12 C 73.20 213.88 70.34 211.02 70.10 207.44 L 70.10 197.44 L 60.10 197.44 C 56.77 198.55 53.43 195.21 53.43 190.76 Z" fill="#e8f0fd" fill-rule="nonzero" node-id="37" stroke="none" target-height="46.70999" target-width="46.71" target-x="53.43" target-y="167.41"></path><path d="M 181.43 798.48 L 181.43 187.42 C 181.43 168.50 195.90 154.03 214.82 154.03 L 591.00 154.03 L 591.00 235.28 C 591.03 247.56 600.98 257.51 613.26 257.54 L 697.85 257.54 L 697.85 797.37 L 181.43 797.37 Z" fill="#ffffff" fill-rule="nonzero" node-id="39" stroke="none" target-height="644.44995" target-width="516.4199" target-x="181.43" target-y="154.03"></path><path d="M 655.58 257.54 L 697.88 257.54 L 697.88 797.37 L 655.58 797.37 Z" fill="#e8f0fd" fill-rule="nonzero" node-id="41" stroke="none" target-height="539.82996" target-width="42.299988" target-x="655.58" target-y="257.54"></path><path d="M 473.00 618.17 L 473.00 619.28 C 473.00 651.56 458.53 680.50 436.27 700.53 C 421.79 713.70 404.15 722.90 385.07 727.25 C 376.98 728.59 368.79 729.33 360.59 729.47 C 298.26 729.47 248.17 679.39 248.17 618.17 C 248.17 559.17 294.92 510.17 353.91 506.86 L 360.59 506.86 C 423.00 506.86 473.00 557.00 473.00 618.17 Z" fill="#e8f0fd" fill-rule="nonzero" node-id="43" stroke="none" target-height="222.60999" target-width="224.83" target-x="248.17" target-y="506.86"></path><path d="M 473.00 620.39 C 473.00 652.67 458.53 681.61 436.27 701.65 L 355.02 619.28 Z" fill="#cedbf0" fill-rule="nonzero" node-id="45" stroke="none" target-height="82.369995" target-width="117.98001" target-x="355.02" target-y="619.28"></path><path d="M 642.23 618.17 C 642.21 624.31 637.24 629.28 631.10 629.30 L 512.00 629.30 C 505.84 629.30 500.85 624.31 500.85 618.15 C 500.85 611.99 505.84 607.00 512.00 607.00 L 631.10 607.00 C 636.66 607.00 642.23 612.60 642.23 618.17 Z" fill="#e8f0fd" fill-rule="nonzero" node-id="47" stroke="none" target-height="22.299988" target-width="141.37997" target-x="500.85" target-y="607"></path><path d="M 500.87 531.35 C 500.87 525.79 506.43 520.22 512.00 520.22 L 631.10 520.22 C 636.66 520.22 642.23 525.79 642.23 531.35 C 642.21 537.49 637.24 542.46 631.10 542.48 L 512.00 542.48 C 506.43 542.48 500.87 536.92 500.87 531.35 Z" fill="#e8f0fd" fill-rule="nonzero" node-id="49" stroke="none" target-height="22.26001" target-width="141.35999" target-x="500.87" target-y="520.22"></path><path d="M 642.23 705.00 C 642.21 711.14 637.24 716.11 631.10 716.13 L 512.00 716.13 C 505.86 716.11 500.89 711.14 500.87 705.00 C 500.87 699.43 506.43 693.86 512.00 693.86 L 631.10 693.86 C 636.66 693.85 642.23 699.42 642.23 705.00 Z" fill="#e8f0fd" fill-rule="nonzero" node-id="51" stroke="none" target-height="22.28003" target-width="141.35999" target-x="500.87" target-y="693.85"></path><path d="M 303.86 343.25 L 303.86 424.50 C 303.89 426.87 302.97 429.15 301.29 430.83 C 299.61 432.51 297.33 433.43 294.96 433.40 L 258.23 433.40 C 255.86 433.44 253.57 432.51 251.89 430.83 C 250.22 429.16 249.29 426.87 249.32 424.50 L 249.32 343.25 C 249.28 340.88 250.21 338.59 251.89 336.91 C 253.57 335.23 255.86 334.30 258.23 334.34 L 295.00 334.34 C 299.41 334.34 303.86 338.79 303.86 343.25 Z" fill="#e8f0fd" fill-rule="nonzero" node-id="53" stroke="none" target-height="99.13077" target-width="54.608017" target-x="249.28459" target-y="334.3046"></path><path d="M 477.50 325.44 L 477.50 425.61 C 477.53 427.98 476.60 430.27 474.93 431.95 C 473.25 433.62 470.96 434.55 468.59 434.52 L 431.86 434.52 C 429.49 434.55 427.20 433.62 425.53 431.95 C 423.85 430.27 422.92 427.98 422.96 425.61 L 422.96 325.44 C 422.92 323.07 423.85 320.78 425.53 319.10 C 427.20 317.43 429.49 316.50 431.86 316.53 L 468.59 316.53 C 474.16 315.42 477.50 319.87 477.50 325.44 Z" fill="#e8f0fd" fill-rule="nonzero" node-id="55" stroke="none" target-height="119.13266" target-width="54.60797" target-x="422.92465" target-y="315.42"></path><path d="M 558.75 239.73 C 558.75 240.85 557.63 241.96 557.63 243.07 L 539.83 277.58 C 537.60 280.92 535.37 283.14 530.92 283.14 C 529.81 283.14 527.58 283.14 526.47 282.03 C 522.02 279.80 519.79 274.24 522.02 269.79 L 528.70 256.43 L 461.91 283.14 C 454.12 286.48 445.22 285.37 437.43 280.92 L 361.74 237.51 C 358.27 235.07 353.53 235.54 350.61 238.62 L 272.70 293.16 C 270.47 294.27 269.36 295.39 267.13 295.39 C 263.79 295.39 261.57 294.27 259.34 290.93 C 256.00 286.48 257.11 280.93 261.57 277.58 L 339.48 223.00 C 348.38 216.32 360.63 216.32 370.64 220.77 L 447.44 263.07 C 450.78 264.18 453.01 265.29 456.35 264.18 L 520.90 238.58 L 507.55 235.24 C 501.98 234.13 499.76 228.56 500.87 224.11 C 501.98 219.66 507.55 216.32 512.00 217.43 L 552.07 228.56 C 554.30 229.68 556.52 230.79 557.63 234.13 L 557.63 239.69 C 559.86 238.58 558.75 238.58 558.75 239.69 Z" fill="#e8f0fd" fill-rule="nonzero" node-id="57" stroke="none" target-height="79.07001" target-width="303.86" target-x="256" target-y="216.32"></path><path d="M 697.88 257.54 L 613.29 257.54 C 601.00 257.52 591.03 247.57 591.00 235.28 L 591.00 154.00 Z" fill="#ffffff" fill-rule="nonzero" node-id="59" stroke="none" target-height="103.54001" target-width="106.880005" target-x="591" target-y="154"></path><path d="M 842.57 797.37 L 842.57 462.37 L 795.83 371.10 L 748.00 462.34 L 748.00 797.34" fill="#ffffff" fill-rule="nonzero" node-id="61" stroke="none" target-height="426.26993" target-width="94.56995" target-x="748" target-y="371.1"></path><path d="M 813.63 797.37 L 813.63 462.37 L 781.36 398.90 L 795.83 371.07 L 842.57 462.34 L 842.57 797.34" fill="#e8f0fd" fill-rule="nonzero" node-id="63" stroke="none" target-height="426.29993" target-width="61.20996" target-x="781.36" target-y="371.07"></path><path d="M 937.18 207.45 L 924.94 207.45 L 924.94 195.21 C 924.94 190.76 921.60 187.42 917.15 186.31 C 912.70 186.31 909.36 189.65 908.24 194.10 L 908.24 206.34 L 896.00 206.34 C 891.55 206.34 888.21 209.68 887.10 214.13 C 887.10 218.59 890.43 221.92 894.89 223.04 L 907.13 223.04 L 907.13 235.28 C 907.13 239.73 910.47 243.07 914.92 244.19 C 919.37 244.19 922.71 240.85 923.83 236.39 L 923.83 224.15 L 936.07 224.15 C 940.52 224.15 943.86 220.81 944.97 216.36 C 945.00 210.79 941.63 207.45 937.18 207.45 Z" fill="#1369f0" fill-rule="nonzero" node-id="65" stroke="none" target-height="57.880005" target-width="57.900024" target-x="887.1" target-y="186.31"></path><path d="M 15.58 482.38 L 27.83 482.38 L 27.83 494.62 C 27.83 499.07 31.17 502.41 35.62 503.52 C 40.07 503.52 43.41 500.19 44.52 495.73 L 44.52 483.49 L 56.77 483.49 C 61.22 483.49 64.56 480.15 65.67 475.70 C 64.56 471.25 61.22 466.79 56.77 466.79 L 44.52 466.79 L 44.52 454.55 C 44.52 450.10 41.18 446.76 36.73 445.65 C 32.28 445.65 28.94 448.99 27.83 453.44 L 27.83 465.68 L 15.58 465.68 C 11.13 465.68 7.79 469.02 6.68 473.47 C 7.79 477.92 11.13 482.38 15.58 482.38 Z" fill="#1369f0" fill-rule="nonzero" node-id="67" stroke="none" target-height="57.869965" target-width="58.989998" target-x="6.68" target-y="445.65"></path><path d="M 1012.87 787.35 L 978.37 787.35 C 971.69 787.35 967.23 791.80 967.23 798.48 C 967.23 805.16 971.69 809.61 978.37 809.61 L 1012.87 809.61 C 1019.55 809.61 1024.00 805.16 1024.00 798.48 C 1024.00 791.80 1019.55 787.35 1012.87 787.35 Z" fill="#1369f0" fill-rule="nonzero" node-id="69" stroke="none" target-height="22.259949" target-width="56.76996" target-x="967.23004" target-y="787.35"></path><path d="M 906.00 787.35 L 853.70 787.35 L 853.70 462.35 C 853.85 461.13 853.44 459.90 852.59 459.01 L 852.59 457.90 L 804.73 366.63 C 801.39 358.84 789.15 358.84 784.73 366.63 L 738.00 457.89 L 738.00 459.00 C 738.00 460.12 736.88 461.23 736.88 462.34 L 736.88 787.34 L 709.00 787.34 L 709.00 257.54 C 709.00 254.20 707.89 251.98 705.66 250.86 C 709.00 254.20 656.66 203.00 598.81 146.24 C 596.58 144.01 594.36 142.90 592.13 142.90 L 215.93 142.90 C 191.37 142.97 171.48 162.86 171.41 187.42 L 171.41 787.35 L 11.13 787.35 C 4.45 787.35 0.00 791.80 0.00 798.48 C 0.00 805.16 4.45 809.61 11.13 809.61 L 278.26 809.61 C 284.94 809.61 289.39 805.16 289.39 798.48 C 289.39 791.80 284.94 787.35 278.26 787.35 L 192.56 787.35 L 192.56 187.42 C 192.59 175.14 202.54 165.19 214.82 165.16 L 579.90 165.16 L 579.90 235.28 C 579.90 254.20 594.37 268.67 613.29 268.67 L 686.75 268.67 L 686.75 786.24 L 377.32 786.24 C 370.64 786.24 366.19 790.69 366.19 797.37 C 366.19 804.05 370.64 808.50 377.32 808.50 L 906.00 808.50 C 912.68 808.50 917.13 804.05 917.13 797.37 C 917.13 790.69 911.56 787.37 906.00 787.37 Z M 613.29 246.41 C 606.61 246.41 602.16 241.96 602.16 235.28 L 602.16 179.63 L 671.16 246.41 Z M 759.10 473.47 L 831.44 473.47 L 831.44 726.13 L 759.10 726.13 Z M 759.10 748.39 L 831.44 748.39 L 831.44 787.39 L 759.10 787.39 Z M 795.83 395.56 L 824.77 451.21 L 766.89 451.21 Z" fill="#1369f0" fill-rule="nonzero" node-id="71" stroke="none" target-height="666.70996" target-width="917.13" target-x="0" target-y="142.9"></path><path d="M 248.21 618.17 C 248.21 679.39 298.30 729.47 360.63 729.47 C 388.55 729.41 415.47 719.11 436.31 700.53 L 354.00 618.17 L 354.00 506.86 C 295.00 510.20 248.21 559.18 248.21 618.17 Z" fill="#1369f0" fill-rule="nonzero" node-id="73" stroke="none" target-height="222.60999" target-width="188.10002" target-x="248.21" target-y="506.86"></path><path d="M 381.77 434.52 C 384.14 434.55 386.43 433.62 388.11 431.95 C 389.78 430.27 390.71 427.98 390.68 425.61 L 390.68 278.69 C 390.72 276.32 389.79 274.03 388.11 272.35 C 386.43 270.68 384.14 269.75 381.77 269.79 L 345.00 269.79 C 342.63 269.76 340.35 270.68 338.67 272.36 C 336.99 274.04 336.07 276.32 336.10 278.69 L 336.10 425.61 C 336.06 427.98 336.99 430.27 338.67 431.95 C 340.34 433.62 342.63 434.55 345.00 434.52 Z" fill="#1369f0" fill-rule="nonzero" node-id="75" stroke="none" target-height="164.80081" target-width="54.65085" target-x="336.06464" target-y="269.75186"></path><path d="M 555.41 434.52 C 557.78 434.55 560.07 433.62 561.74 431.95 C 563.42 430.27 564.35 427.98 564.31 425.61 L 564.31 306.52 C 564.35 304.15 563.42 301.86 561.74 300.18 C 560.07 298.51 557.78 297.58 555.41 297.61 L 518.68 297.61 C 516.31 297.57 514.02 298.50 512.34 300.18 C 510.66 301.86 509.73 304.15 509.77 306.52 L 509.77 424.52 C 509.74 426.89 510.67 429.18 512.34 430.85 C 514.02 432.53 516.31 433.46 518.68 433.42 L 555.41 433.42 Z" fill="#1369f0" fill-rule="nonzero" node-id="77" stroke="none" target-height="136.97809" target-width="54.61075" target-x="509.7346" target-y="297.5746"></path></svg>